<svg width="150" height="75" viewBox="0 0 150 75" fill="none" xmlns="http://www.w3.org/2000/svg">
<g id="Group 154">
<g id="Group 152">
<g id="Group 149">
<g id="Group 124">
<path id="Vector" d="M124.998 49.998L124.998 -1.30932e-05L150 -1.41861e-05C150 8.76598 148.494 17.178 145.734 24.996C142.44 34.314 137.364 42.786 130.902 49.998C129.048 52.074 127.074 54.048 124.998 55.902C117.786 62.358 109.32 67.44 100.002 70.728C92.184 73.494 83.766 75 75 75C66.234 75 57.822 73.494 50.004 70.734C40.686 67.44 32.214 62.364 25.002 55.902C22.926 54.048 20.952 52.074 19.098 49.998C12.636 42.786 7.56 34.314 4.266 24.996C1.506 17.172 -2.89518e-06 8.76599 -3.27835e-06 -7.62939e-06L25.002 -8.72227e-06L25.002 49.998L124.998 49.998Z" fill="#015AE9"/>
<path id="Vector_2" d="M50.0039 8.58307e-05L100.002 8.36452e-05C100.002 13.8061 88.8059 24.9961 74.9999 24.9961C61.1939 24.9961 50.3459 14.1541 50.0039 0.648087L50.0039 8.58307e-05Z" fill="#015AE9"/>
</g>
</g>
</g>
</g>
</svg>
