<svg width="337" height="150" viewBox="0 0 337 150" fill="none" xmlns="http://www.w3.org/2000/svg">
<g id="Vector">
<path d="M18.4372 18.4904C56.1718 52.1603 103.852 72.0094 154.035 75.2264C103.868 78.4279 56.1718 98.2926 18.4372 131.947C12.2446 137.491 6.27085 143.457 0.703712 149.656L0.422227 149.984H0V0L0.703712 0.780843C6.27085 6.98074 12.2446 12.9308 18.4372 18.4904Z" fill="#01B2F4"/>
<path d="M337 0V150H336.578L336.281 149.672C330.714 143.472 324.755 137.522 318.547 131.963C280.813 98.2926 233.132 78.4435 182.95 75.2421C233.132 72.025 280.813 52.1759 318.547 18.506C324.755 12.962 330.714 6.99636 336.281 0.79646L337 0.0156169V0Z" fill="#01B2F4"/>
</g>
</svg>
