<svg width="112" height="150" viewBox="0 0 112 150" fill="none" xmlns="http://www.w3.org/2000/svg">
<g id="Group 232">
<g id="Group 178">
<g id="Group">
<path id="Vector" d="M111.772 49.9835C109.919 52.0589 107.945 54.0324 105.87 55.8858C98.6598 62.34 90.1963 67.4205 80.8809 70.7076C73.0651 73.4728 64.6495 74.9784 55.886 74.9784C47.1225 74.9784 38.713 73.4728 30.8972 70.7136C21.5818 67.4205 13.1123 62.346 5.90232 55.8858C3.82691 54.0324 1.85347 52.0589 0 49.9835H111.772Z" fill="#01B2F4"/>
<path id="Vector_2" d="M99.1816 24.995C94.7909 32.5828 88.4687 38.905 80.8808 43.2958C73.5269 47.5486 64.9914 49.9839 55.886 49.9839C46.7806 49.9839 38.251 47.5486 30.8971 43.2958C23.3093 38.911 16.9811 32.5828 12.5903 24.995H99.1816Z" fill="#01B2F4"/>
<path id="Vector_3" d="M80.8812 0C80.8812 13.8021 69.6884 24.9949 55.8863 24.9949C42.0843 24.9949 31.2394 14.15 30.8975 0.647812V0H80.8812Z" fill="#01B2F4"/>
</g>
</g>
<g id="Group 179">
<g id="Group_2">
<path id="Vector_4" d="M-0.00012207 100.016C1.85335 97.9411 3.82678 95.9676 5.90219 94.1142C13.1121 87.66 21.5757 82.5795 30.8911 79.2924C38.7068 76.5272 47.1224 75.0216 55.8859 75.0216C64.6494 75.0216 73.059 76.5272 80.8748 79.2864C90.1901 82.5795 98.6597 87.654 105.87 94.1142C107.945 95.9676 109.919 97.9411 111.772 100.016H-0.00012207Z" fill="#01B2F4"/>
<path id="Vector_5" d="M12.5904 125.005C16.9811 117.417 23.3033 111.095 30.8911 106.704C38.245 102.451 46.7806 100.016 55.886 100.016C64.9914 100.016 73.521 102.451 80.8749 106.704C88.4627 111.089 94.7909 117.417 99.1816 125.005H12.5904Z" fill="#01B2F4"/>
<path id="Vector_6" d="M30.8908 150C30.8908 136.198 42.0836 125.005 55.8856 125.005C69.6877 125.005 80.5326 135.85 80.8745 149.352V150H30.8908Z" fill="#01B2F4"/>
</g>
</g>
</g>
</svg>
