<svg width="75" height="150" viewBox="0 0 75 150" fill="none" xmlns="http://www.w3.org/2000/svg">
<g id="Group 208">
<g id="Group 124">
<path id="Vector" d="M25.002 124.998L75 124.998L75 150C66.234 150 57.822 148.494 50.004 145.734C40.686 142.44 32.214 137.364 25.002 130.902C22.926 129.048 20.952 127.074 19.098 124.998C12.642 117.786 7.56 109.32 4.272 100.002C1.506 92.184 0 83.766 0 75C0 66.234 1.506 57.822 4.266 50.004C7.56 40.686 12.636 32.214 19.098 25.002C20.952 22.926 22.926 20.952 25.002 19.098C32.214 12.636 40.686 7.56 50.004 4.266C57.828 1.506 66.234 0 75 0V25.002L25.002 25.002L25.002 124.998Z" fill="#015AE9"/>
</g>
</g>
</svg>
